<?xml version="1.0" standalone="no"?><!DOCTYPE svg PUBLIC "-//W3C//DTD SVG 1.1//EN" "http://www.w3.org/Graphics/SVG/1.1/DTD/svg11.dtd"><svg t="1588923872950" class="icon" viewBox="0 0 1024 1024" version="1.1" xmlns="http://www.w3.org/2000/svg" p-id="2185" xmlns:xlink="http://www.w3.org/1999/xlink" width="200" height="200"><defs><style type="text/css"></style></defs><path d="M615.04 64a444.992 444.992 0 0 1 223.04 132.416 134.464 134.464 0 0 0 6.464 118.336c21.12 37.632 57.6 60.416 96.64 64.96C953.408 421.632 960 465.92 960 512c0 46.016-6.592 90.368-18.816 132.288-39.04 4.48-75.52 27.328-96.64 64.96a134.464 134.464 0 0 0-6.4 118.4A444.992 444.992 0 0 1 615.04 960 126.72 126.72 0 0 0 512 906.496 126.72 126.72 0 0 0 408.96 960a444.992 444.992 0 0 1-223.04-132.416 134.464 134.464 0 0 0-6.464-118.336c-21.12-37.632-57.6-60.416-96.64-64.96A471.936 471.936 0 0 1 64 512c0-46.016 6.592-90.368 18.816-132.288 39.04-4.48 75.52-27.328 96.64-64.96 21.12-37.568 22.144-81.408 6.4-118.4A444.992 444.992 0 0 1 408.96 64c23.296 32.448 60.8 53.504 103.04 53.504A126.72 126.72 0 0 0 615.04 64z m19.648 72.384a189.44 189.44 0 0 1-245.376 0 380.928 380.928 0 0 0-131.584 78.72c7.68 44.224 0.256 90.56-22.464 131.008-22.72 40.32-58.112 70.4-99.456 86.016a410.56 410.56 0 0 0 0 159.744c41.344 15.68 76.8 45.632 99.456 86.016 22.72 40.448 30.08 86.784 22.4 131.008 38.4 35.008 83.072 61.824 131.648 78.72a189.44 189.44 0 0 1 245.376 0 380.928 380.928 0 0 0 131.584-78.72 198.144 198.144 0 0 1 22.464-131.008c22.72-40.32 58.112-70.4 99.456-86.016a410.56 410.56 0 0 0 0-159.744 192.576 192.576 0 0 1-99.456-86.016 198.144 198.144 0 0 1-22.4-131.008 380.928 380.928 0 0 0-131.648-78.72zM512 320a192 192 0 1 1 0 384 192 192 0 0 1 0-384z m0 64a128 128 0 1 0 0 256 128 128 0 0 0 0-256z" p-id="2186" fill="#ffffff"></path></svg>